<?xml version="1.0" encoding="utf-8"?>
<!-- Generator: Adobe Illustrator 22.0.1, SVG Export Plug-In . SVG Version: 6.00 Build 0)  -->
<svg version="1.1" id="Layer_1" xmlns="http://www.w3.org/2000/svg" xmlns:xlink="http://www.w3.org/1999/xlink" x="0px" y="0px"
	 viewBox="0 0 729 230" style="enable-background:new 0 0 729 230;" xml:space="preserve">
<style type="text/css">
	.st0{fill:#6ECEEE;}
	.st1{fill:#96D9F2;}
	.st2{fill:#E53143;}
	.st3{fill:#38C5EB;}
	.st4{fill:#0D1633;}
</style>
<g>
	<g>
		<polygon class="st0" points="104.6,137.8 104.6,137.8 78.8,100.6 78.8,100.6 78.8,100.6 53.1,63.4 27.4,100.6 27.4,100.6 
			53.1,137.8 53.1,137.8 53.1,137.8 53.1,137.8 53.1,137.8 78.8,175 		"/>
	</g>
	<polygon class="st1" points="156,137.8 130.3,100.6 130.3,100.6 130.3,100.6 104.6,63.4 78.8,100.6 78.8,100.6 104.5,137.7 
		104.5,137.8 130.2,174.9 181.7,174.9 	"/>
	<polygon class="st2" points="155.9,100.6 130.2,63.4 181.6,63.4 	"/>
	<polygon class="st3" points="130.3,100.6 130.3,100.6 104.6,63.4 78.8,100.6 78.8,100.6 53.1,137.8 53.1,137.8 78.8,175 
		104.6,137.8 104.6,137.8 	"/>
</g>
<g>
	<path class="st4" d="M249.8,142h-9.3l-17-48.5c0.5,2.4,0.7,4.2,0.7,5.6V142h-10.4V65h9.3l17,47.5c-0.5-2.4-0.7-4.2-0.7-5.6V65h10.4
		V142z"/>
	<path class="st4" d="M330.4,142h-29.5V65h29.2v10.2h-18.6v22.5h16v10h-16v24.2h18.9V142z"/>
	<path class="st4" d="M411.1,75.2h-11.7V142h-10.6V75.2H377V65h34V75.2z"/>
	<path class="st4" d="M469.8,142h-10.6V65h10.6V142z"/>
	<path class="st4" d="M557.1,142h-9.3l-17-48.5c0.5,2.4,0.7,4.2,0.7,5.6V142H521V65h9.3l17,47.5c-0.5-2.4-0.7-4.2-0.7-5.6V65h10.4
		V142z"/>
	<path class="st4" d="M639,75.2h-11.7V142h-10.6V75.2H605V65h34V75.2z"/>
</g>
<g>
	<path class="st4" d="M468.3,160.7H465v19.7h-1.9v-19.7h-3.3V159h8.5V160.7z"/>
	<path class="st4" d="M481.3,180.4h-7V159h6.9v1.7h-5v8h4.6v1.7h-4.6v8.3h5.1V180.4z"/>
	<path class="st4" d="M496.5,178.9c0,0.4-0.1,0.8-0.4,1.1c-0.3,0.3-0.7,0.4-1.1,0.4h-5.5c-0.4,0-0.8-0.1-1.1-0.4
		c-0.3-0.3-0.4-0.6-0.4-1.1v-18.4c0-0.4,0.1-0.8,0.4-1.1c0.3-0.3,0.6-0.4,1.1-0.4h5.5c0.4,0,0.8,0.1,1.1,0.4
		c0.3,0.3,0.4,0.6,0.4,1.1v5h-1.9v-4.8h-4.8v18h4.8v-5.3h1.9V178.9z"/>
	<path class="st4" d="M512.4,180.4h-1.9v-10.3h-5.2v10.3h-1.9V159h1.9v9.4h5.2V159h1.9V180.4z"/>
	<path class="st4" d="M528.3,180.4H527l-5.7-15.7v15.7h-1.8V159h1.4l5.6,15.5V159h1.8V180.4z"/>
	<path class="st4" d="M544.4,178.9c0,0.4-0.1,0.8-0.4,1.1s-0.7,0.4-1.1,0.4h-6c-0.4,0-0.8-0.1-1.1-0.4c-0.3-0.3-0.4-0.6-0.4-1.1
		v-18.4c0-0.4,0.1-0.8,0.4-1.1c0.3-0.3,0.6-0.4,1.1-0.4h6c0.4,0,0.8,0.1,1.1,0.4s0.4,0.6,0.4,1.1V178.9z M542.5,178.7v-18h-5.2v18
		H542.5z"/>
	<path class="st4" d="M558.4,180.4h-6.8V159h1.9v19.7h4.9V180.4z"/>
	<path class="st4" d="M573.7,178.9c0,0.4-0.1,0.8-0.4,1.1s-0.7,0.4-1.1,0.4h-6c-0.4,0-0.8-0.1-1.1-0.4c-0.3-0.3-0.4-0.6-0.4-1.1
		v-18.4c0-0.4,0.1-0.8,0.4-1.1c0.3-0.3,0.6-0.4,1.1-0.4h6c0.4,0,0.8,0.1,1.1,0.4s0.4,0.6,0.4,1.1V178.9z M571.8,178.7v-18h-5.2v18
		H571.8z"/>
	<path class="st4" d="M589.4,178.9c0,0.4-0.1,0.8-0.4,1.1c-0.3,0.3-0.6,0.4-1.1,0.4h-5.6c-0.4,0-0.8-0.1-1.1-0.4
		c-0.3-0.3-0.4-0.6-0.4-1.1v-18.4c0-0.4,0.1-0.8,0.4-1.1c0.3-0.3,0.6-0.4,1.1-0.4h5.6c0.4,0,0.8,0.1,1.1,0.4
		c0.3,0.3,0.4,0.6,0.4,1.1v5h-1.9v-4.8h-4.8v18h4.8v-7.4h-2.3v-1.6h4.2V178.9z"/>
	<path class="st4" d="M598.5,180.4h-1.9V159h1.9V180.4z"/>
	<path class="st4" d="M612.7,180.4h-7V159h6.9v1.7h-5v8h4.6v1.7h-4.6v8.3h5.1V180.4z"/>
	<path class="st4" d="M627.7,178.9c0,0.4-0.1,0.8-0.4,1.1c-0.3,0.3-0.6,0.4-1.1,0.4h-5.4c-0.4,0-0.8-0.1-1.1-0.4s-0.4-0.6-0.4-1.1
		v-5.4h1.9v5.3h4.6v-5.1l-5.9-7.1c-0.4-0.5-0.6-1-0.6-1.6v-4.3c0-0.4,0.1-0.8,0.4-1.1s0.7-0.4,1.1-0.4h5.4c0.4,0,0.8,0.1,1.1,0.4
		c0.3,0.3,0.4,0.6,0.4,1.1v5h-1.9v-4.8h-4.6v4.5l5.9,7.1c0.4,0.5,0.6,1,0.6,1.6V178.9z"/>
</g>
</svg>
